<?xml version="1.0" encoding="utf-8"?>
<!-- Generator: Adobe Illustrator 24.0.2, SVG Export Plug-In . SVG Version: 6.00 Build 0)  -->
<svg version="1.1" id="Camada_1" xmlns="http://www.w3.org/2000/svg" xmlns:xlink="http://www.w3.org/1999/xlink" x="0px" y="0px"
	 viewBox="0 0 878 768" style="enable-background:new 0 0 878 768;" xml:space="preserve">
<style type="text/css">
	.st0{fill:#EEEEF8;}
	.st1{fill:#EFEFF9;}
	.st2{fill:#3D3B6A;}
	.st3{fill:#ACACE6;}
	.st4{fill:#CCE7EF;}
	.st5{fill:#A8CEEE;}
	.st6{fill:#4D4A76;}
	.st7{fill:#ECB8A9;}
	.st8{fill:#E2E6F6;}
	.st9{fill:#8B8BBC;}
	.st10{fill:#B0B1E3;}
	.st11{fill:#DBDAEC;}
	.st12{fill:#EDEDF7;}
	.st13{fill:#FBFBFC;}
	.st14{fill:#FDFDFD;}
</style>
<g>
	<path class="st0" d="M714.2,559.9c7.1,6.2,7.5,12.2-0.5,19.5c-17.2,15.9-37.8,22.5-61.1,19.4c-18.5-2.4-36.6-7.2-54.2-12.8
		c-19.2-6.2-36.7-2.8-52.8,6.5c-22,12.8-45.1,18.9-70.1,17.2c-26-1.8-49.3,5.6-71.1,18.6c-32.2,19.3-67.4,23-103.9,21
		c-3.5-0.2-7.5-0.6-8.6-4.4c-1.4-4.5,3.3-5.3,5.8-7.4c11.6-9.4,26.5-11.5,39.5-17.6c4.3-2,12-2.6,11.2-8.9c-0.9-7-8.3-8.1-14.4-9.7
		c-48.1-12.4-97.2-10.8-146.2-9.9c-8.9,0.2-17.7,0-26.5-0.6c-4.4-0.3-10.1,0.2-11.4-6.3c3.7,0.5,7.3,0.9,11,1.5
		c5.1,0.8,11.4,2.2,13-3.9c1.5-5.9-5.8-5.1-9.1-7.4c-0.3-0.2-0.6-0.2-0.9-0.3c0.2-0.9,0.3-1.9,0.5-2.8c0.7-0.4,1.4-0.9,2.1-1.3
		c11.3-5.3,23.7-5.9,35.6-8.3c2.2,3.2-0.5,8.2,3.9,10.6c-0.1,1.1-0.3,2.3-0.4,3.4c-2.1,2.3-2.8,5.8-0.7,7.4c4.5,3.3,9.7,1.7,14.6,0
		c4.5-1.6,11.9-1.6,10.8-8.2c-1-5.4-7.6-2-11.6-2.7c-0.9-0.8-1.7-1.5-2.6-2.3c4.1-3.3,2.1-8.3,3.4-12.3c7-2.8,14.1-5.5,21.1-8.3
		c4.4-1.7,9-4.5,8.6-9.2c-0.4-4.6-5.4-6.5-10-7.4c-4.9-1-10.4-2.7-11.3-7.7c-0.9-5.5,4-9.2,8.2-12.3c1.9-1.4,4.2-2.4,6.4-3.3
		c29-11.4,59.6-16.1,90.2-20.4c3.1,11.3-5.5,16.8-12.3,21.9c-15.2,11.5-21.3,25.6-19,44.6c1,7.9,2.8,11,11,10.8
		c18.6-0.4,37.3-0.1,56-0.1c2.4,6.8,6.4,4.6,10.6,2c1.4-0.8,2.8-1.6,4.3-2.4c24.6,0.1,49.2,0.3,73.8,0.3c13.1,0,12.8-0.2,13.3-13.6
		c0.3-7-3.1-15.1,2.7-21c10.9-11.1,22.2-21.9,33.7-32.4c3.6-3.3,8.3-5,9.6,2.6c0.5,3.3,2.1,5.2,5.3,5.2c3.3,0,6.1-1,6.9-4.9
		c0.5-2.3,1.4-4.6,2.2-6.9c5.4-0.7,10.9-1.5,16.3-2.2c14.2,2.1,28.4,4,42.4,6.5c13.7,2.5,27.7,4.5,40.3,10.9
		c2.1,1.1,6.6,2.3,3.6,5.6c-9.3,10.1,1.4,8.4,5.8,10.4c4.1,7.5,1.2,15.5,1.8,23.2c-4.6,1.2-12.2-2.1-12.7,5c-0.4,5.5,7,5.2,11.1,7.2
		c1.8,0.9,3.9,1.3,5.9,1.6c10.5,2.1,11.9,0.6,10.2-10.2c-0.7-1.3-1.3-2.5-1.9-3.8c4-5,1.7-11.6,4.4-16.9c10.9-0.1,20.3,6.9,31.3,6.2
		c3.1,4.4,3.5,11.2,10.7,11.9c-4.1,0.5-7.5,2.6-11,4.6c-2.3,1.3-4,3.1-3.4,5.8c0.7,3,3.5,2.8,5.9,2.9
		C699.2,564.5,707,564,714.2,559.9z"/>
	<path class="st1" d="M403.6,170.8c15.7,14.9,32.1,28.8,51,39.6c3.6,2.1,7,4.5,11.4,4.1c0.5,3,1.1,6.1,1.4,9.1
		c1.1,8.3,4.3,9.5,10.2,3.3c2.9-3,6.1-5.6,9.2-8.3c5.1,4.3,10.4,2,15.4,0.1c11.2-4.4,22.5-8,34.8-6c-6.5,7.8-8.8,16.7-8.5,26.9
		c0.5,17.9,0.2,35.9,0.1,53.9c-0.1,18.3-6.4,24.8-24.7,25.6c-2-0.3-4-0.6-6-1c-0.1-11.1,0-22.2-0.3-33.2c-0.4-13.7-8.3-22-22.1-22.1
		c-40.2-0.3-80.3-0.3-120.5,0c-13.3,0.1-21.8,9-22.1,22.4c-0.3,11.1-0.2,22.1-0.3,33.2c-5,0.1-5.9,3.2-5.9,7.5
		c0.1,9.8-0.1,19.7-0.1,29.5c-2.4,0-4.8-0.1-7.2-0.1c-21.7-0.1-30.6-9.2-30.9-30.6c-0.2-8.9,1-17.7,1.9-26.5
		c7.7,0.6,11.5-2.8,11.4-10.7c-0.1-11-0.1-22,0-33c0-7.3-3.5-10.7-10.8-10.7c-11,0-22,0-33-0.1c-0.5-21.1,1-42,8.3-62.1
		c9.9-27.2,26.9-47.5,55.7-54.8c9.8-2.5,20.3,0.9,29.6,5.5c4.3,2.1,8.3,4.9,12.5,7.4c0.4,9.8-2.8,20.7,10.9,25.4
		C384.4,168.2,392.5,176.3,403.6,170.8z"/>
	<path class="st2" d="M205.9,572.6c-4.4-2.4-1.6-7.4-3.9-10.6c0.5-14.2-1.8-28.2-1.9-42.3c-0.1-10.5-7.6-16.2-11.2-24.5
		c0.7,10.4-1.9,19.5-5.5,28.6c-5.9,15.4-11.4,31-17,46.5c-0.7,0.4-1.4,0.9-2.1,1.3c-4.2-1-8.4-2-12.5-3c-3.6-2.9-1.6-6.1-0.6-9.4
		c4.5-14.4,8.4-29.1,13.6-43.3c3.3-8.9,3.2-17.1,0.9-26.1c-3.1-12.1-4.9-24.4-1.8-36.8c12.6,2.6,25.2,6.5,38,0.9
		c2.7-0.7,5.4-1.4,8.1-2.2c8.1,34.9,11.7,70.2,9.3,106c-1.3,4.1,0.7,9.1-3.4,12.3C212.6,571,209.3,571.8,205.9,572.6z"/>
	<path class="st3" d="M677,345.5c14.4,0.2,19.3,5.6,20,22.3c0.7,18.3,0.4,36.6-2.2,54.7c-0.2,0.2-0.7,0.5-0.7,0.6
		c0.1,0.6,0.4,1.1,0.6,1.7c-0.1,1.2-0.2,2.4-0.3,3.5c-15,6.6-30.1,5.6-45.2,0.4c-3.1-11.8-2.9-23.9-2.1-35.9
		c0.6-8.5-1.8-13-10.5-13.5c-14.6-0.9-23.9-9.3-30.2-21.7c-3.2-6.1-6.2-12.3-9.3-18.4c-0.7-2.1-1.4-4.3-2.1-6.4
		c2.1-1.4,4.1-2.7,6.2-4.1c1.4,0.8,2.8,1.6,4.2,2.3c-0.4,4.6,4.2,5.5,6.3,8.3c1.5,1.9,3.3,3.6,4.4,5.7c6.5,12.3,16,15,29.2,11.3
		c6.4-1.8,11.7-5.6,18.2-6.9C668.5,350,673.6,350.6,677,345.5z"/>
	<path class="st4" d="M649.3,428.7c15.1,5.3,30.2,6.2,45.2-0.4c4,13.7,2.9,27.3-1.3,40.7c-2.9,9.3-1.3,18.2,1.7,27.2
		c4.6,13.4,8.4,27,12.9,40.5c1.5,4.4,2.1,8.7,1.3,13.2c-3.2,0.3-6.3,0.7-9.5,1c-7.2-0.7-7.6-7.5-10.7-11.9
		c-5.5-15.4-11-30.8-16.5-46.1c2.2-13,4.3-26,6.4-39c-6.4,5.8-5.1,13.9-8.4,20.5c-5.5,5.4-9.9,11.6-10.8,19.4
		c-1.5,12.9-3.1,25.9-2.2,39c-2.7,5.3-0.4,11.9-4.4,16.9c-4.2,0.1-8.5,0.3-12.7,0.4l0.1-0.3c-0.6-7.7,2.3-15.7-1.8-23.2
		C636.7,493.4,643.1,461.1,649.3,428.7z"/>
	<path class="st5" d="M201.9,454c-12.8,5.6-25.4,1.7-38-0.9c-3-16-1.9-32.1-0.6-48.1c0.7-8.7,1.1-17.7,4.8-26.1
		c3-6.6,6.7-11,14.4-10.8c4.3,3.9,9.3,5,14.9,4c10.2,6.1,20.6,4.1,31.2,1.2c2,5.6,4.9,10.8,8.6,15.5c-7.2,6.8-17.1,9.3-25,15.1
		c-6.4,2-9.2,7.8-7.9,12.8C207.6,429.6,204.8,441.7,201.9,454z"/>
	<path class="st4" d="M258,243.6c11,0,22,0.1,33,0.1c7.2,0,10.8,3.4,10.8,10.7c0,11-0.1,22,0,33c0.1,7.9-3.7,11.3-11.4,10.7
		c-3-1.4-5.9-1-8.9-0.1c-3.6,0-7.2-0.1-10.8-0.1c-0.1-3,0.2-6.2-4.2-6.3c-4.4-4.9-9.8-8.3-16.3-9.8c-2,0.6-4.1,1.2-6.1,1.8
		c-0.2-8.3-0.5-16.5-0.5-24.8C243.4,245.2,244.6,244.1,258,243.6z M291.3,271.9c0-3.8,0.1-7.6,0-11.4c-0.1-3.5-1.5-6.3-5.5-6.1
		c-3.3,0.2-4.8,2.7-4.8,5.7c-0.1,7.6-0.1,15.2,0,22.8c0,3.4,1.5,6.3,5.5,6.1c4-0.2,4.8-3.4,4.8-6.7
		C291.3,278.8,291.3,275.4,291.3,271.9z"/>
	<path class="st4" d="M403.6,170.8c-11.1,5.5-19.2-2.6-28.6-5.8c-13.7-4.7-10.5-15.6-10.9-25.4c-1.5-9,2.2-14.5,11.1-16.5
		c0.3-0.1,0.7-0.1,1-0.3c16.2-13.7,30.5-3.9,45,3.7c0.9,0.5,1.9,0.9,2.7,1.6c5.2,4.8,0.6,31.6-5.8,34.7
		C413.1,165.3,407.6,166.8,403.6,170.8z M372.3,130.6c8,2.4,13.3,9.9,19.8,6.6c3-1.5,3-12.6,0-14
		C385.8,120.2,379.9,126.2,372.3,130.6z M373.8,156.8c3.5,4.9,9,5.5,13.4,7.9c4.8,2.5,6.3,0.4,6-4.2c-0.2-3.7,1.7-8.6-1.1-10.9
		c-3.4-2.8-6.8,1.7-10.1,2.9C379.1,153.7,376.5,155.4,373.8,156.8z M368.4,133.9c0,5.6,0,9.6,0,13.7c0,2.9,1.6,5,4.5,3.8
		c4.6-1.9,11.4-2.7,12.6-7.4c1-3.9-5.9-4.3-9.1-6.5C374.4,136.2,372.1,135.6,368.4,133.9z M397.1,130c1.7,2.6-2.3,9,3.7,8.2
		c4.9-0.7,13.5-5.4,13.2-7.4c-0.8-6.1-8.3-7.6-13.4-8.6C395.2,121.2,398.5,127.2,397.1,130z M420.5,144.4c-1.1-2.6,2.2-8.1-3.2-7.8
		c-5.3,0.2-13.4,2.3-13.8,6.7c-0.5,5.3,7.7,6.7,12.5,8.1C421.4,153,419.9,147.6,420.5,144.4z M414.9,157.6
		c-6-2.1-10.1-10.9-16.7-6.7c-2.7,1.7-2.7,11.5,0.1,13.1C404.5,167.9,409.3,160.7,414.9,157.6z"/>
	<path class="st1" d="M464.7,133.4c11.8,0.2,22.1,10.3,22.1,21.6c0,10.2-11.7,20-23.8,20c-11.8,0-20.1-9-19.8-21.6
		C443.5,141.1,452,133.2,464.7,133.4z"/>
	<path class="st6" d="M504,319c18.2-0.8,24.6-7.3,24.7-25.6c0.1-18,0.3-35.9-0.1-53.9c-0.3-10.1,2-19.1,8.5-26.9l-0.1,0
		c0.9-0.7,1.7-1.4,2.5-2.1c25.1-11.9,43.5-0.7,44.3,26.9c0.2,7.6,0.2,15.2,0.3,22.8c-0.6,1.3-1.1,2.6-1.7,4c-1.3-0.7-2.6-1.3-3.9-2
		c0-5.5,0.1-11,0.1-16.5c0.2-4.5,0.4-8.9,0.4-13.4c0-18-21.9-28.8-35-18.2c-9.1,4.9-11.1,13.3-11.1,22.7c0,18.6,0,37.2,0,55.8
		c0,21.5-8.2,30.1-29.5,30.9C503.8,322.1,503.9,320.5,504,319z"/>
	<path class="st3" d="M244,283.6c2-0.6,4.1-1.2,6.1-1.8c-1.3,4.9-1,6.9,4.1,11.5c7.5,6.8,8.7,3.7,12.2-1.7c4.4,0.1,4.1,3.3,4.2,6.3
		c-2.9,0.9-4.3,2.9-4.9,5.7c-4.1,6.4-8.2,12.8-12.3,19.1c-4.5-1.2-7.4,1.5-10.2,4.4c-4.2-2.3-8.7-4.2-12.4-7
		c-3.3-2.5-10.5-3.5-8.7-8.4c1.8-5.2,3.5-12.1,11-13.6C240.7,296.5,242.3,289.9,244,283.6z"/>
	<path class="st4" d="M486.8,218.6c-3.1,2.8-6.3,5.4-9.2,8.3c-5.9,6.2-9.1,5-10.2-3.3c-0.4-3.1-1-6.1-1.4-9.1
		c-1.3-6.4-2.5-12.8-3.8-19.1c-1.3-6.6,0.1-10.2,8.2-10.2c9.4,0,18.5,1.8,27.7,2.2c4.9,0.3,4.5,2.6,4.5,6.8
		C502.5,206.1,491.9,210.4,486.8,218.6z M468.2,191.7c-0.3-0.2-0.5-0.3-0.8-0.5C467.7,191.3,467.9,191.5,468.2,191.7
		c0.4,7.2,3.3,13.6,7.2,19.7c13.7-10.7,13.7-10.8-0.5-17.3C472.7,193.1,470.4,192.5,468.2,191.7z M497.7,190.3c-8.2,0-14.6,0-20.9,0
		C483.2,193.1,489.5,200,497.7,190.3z M494.3,202.8c-4-0.1-5.4,2.4-6.7,4.9c-0.1,0.2,0.6,0.9,0.9,1.4
		C490.9,207.8,492.8,206,494.3,202.8z M478.8,217.1c-0.5,0.3-1.3,0.4-1.5,0.8c-0.2,0.4,0.2,1.1,0.3,1.6c0.5-0.3,1.2-0.4,1.5-0.9
		C479.3,218.4,478.9,217.7,478.8,217.1z"/>
	<path class="st2" d="M182.9,367c-8.6-4.6-14.5-19.8-11.8-28.8c2-6.7,9.2-9.9,23.6-9.4c7.3,0.2,9.9,3.8,9,10.6c-1,1-1.9,2-2.9,2.9
		c-5.7,4.8-12.5,8.2-8.9,18.4C194,366.5,187.2,366.6,182.9,367z"/>
	<path class="st7" d="M243.2,327.1c2.8-2.9,5.7-5.6,10.2-4.4c-0.7,17.7-2.3,35.4-5.8,52.8c-1.2,6-4.6,10.7-10.4,13.3
		c-3.7-4.7-6.6-9.8-8.6-15.5C236,358.7,242.9,343.9,243.2,327.1z"/>
	<path class="st8" d="M499.4,89.7c9.2,4.2,13.3,13.4,9.7,21.7c-4.2,9.6-15.6,14.3-25,10.1c-10.2-4.5-14.5-15.1-10.1-24.5
		C479.5,85.1,490.1,82,499.4,89.7c-5.2-0.1-11.4-1-11.9,6.3c-0.4,6.1,2.5,10.7,9.8,10.3c0.4,3.7,2.8,5.1,5.8,3.6
		c4.4-2.2,2.1-6.4,2.4-10.4c-2.4,1.9-4.3,3.3-6.1,4.7C498.8,99.4,503.4,94.5,499.4,89.7z M499.4,117.1c-10.4-7.4-11.1-7.5-21.1-5
		C487.5,119.9,487.5,119.9,499.4,117.1z M484.1,92.5c-4.8,3.4-9,6.2-7,11.3c1.4,3.6,5.3,4.1,9,3.2
		C485.4,102.1,484.8,97.8,484.1,92.5z"/>
	<path class="st9" d="M665.8,308.1c15.4,4.8,19.3,17.6,10,32.9c-2.9,0.1-6.8-0.8-6.9-3.2c-0.3-12-10.2-11.8-17.6-15
		c-1.7-7.4,1-12.3,8.2-14.8C661.6,308,663.7,308,665.8,308.1z"/>
	<path class="st3" d="M665.8,308.1c-2.1,0-4.1-0.1-6.2-0.1c0-9.7,0.1-19.4,0.1-29.1c0-13.7-0.6-14.3-14.9-14.4
		c-20.8-0.1-41.5-0.1-62.3-0.2c0.6-1.3,1.1-2.6,1.7-4c22.1,0.1,44.2,0.3,66.4,0.4c12.8,0.1,15,2.4,15.1,15.1
		C665.6,286.6,665.7,297.4,665.8,308.1z"/>
	<path class="st1" d="M526,139.6c4.9,0.6,12.1,0.1,12.7,8.8c0.4,6.5-7.9,13.6-15.6,14c-5.4,0.2-15.6-9.6-15.3-14.7
		C508.1,142.6,513.9,139.8,526,139.6z"/>
	<path class="st7" d="M182.9,367c4.3-0.5,11.1-0.5,9.1-6.4c-3.6-10.2,3.2-13.6,8.9-18.4c1-0.9,1.9-1.9,2.9-2.9
		c2.9,9.5,9.3,19.6-5,26c-2.4,1.1-1.1,4.4-1.3,6.7c-5.6,1-10.6-0.1-14.9-4C182.7,367.7,182.8,367.4,182.9,367z"/>
	<path class="st7" d="M651.3,322.7c7.4,3.1,17.3,3,17.6,15c0.1,2.5,3.9,3.4,6.9,3.2c0.4,1.5,0.8,3,1.2,4.5
		c-3.4,5.1-8.5,4.5-13.6,4.1c0.2-2.8,0.3-5.7-3.6-5.7c-4.5,0-5.8-3.9-8.1-6.5C651.6,332.5,651.5,327.6,651.3,322.7z"/>
	<path class="st6" d="M699.6,551c3.2-0.3,6.3-0.7,9.5-1c4.5,1.9,5.1,5.7,5.1,9.9c-7.2,4.1-15.1,4.6-23.1,4.4
		c-2.4-0.1-5.2,0.1-5.9-2.9c-0.6-2.6,1.1-4.5,3.4-5.8C692.1,553.6,695.5,551.5,699.6,551z"/>
	<path class="st10" d="M163.9,574.5c0.3,0.1,0.7,0.2,0.9,0.3c3.3,2.3,10.6,1.5,9.1,7.4c-1.6,6.1-7.9,4.7-13,3.9
		c-3.7-0.5-7.3-1-11-1.5c-5.5-4.1-6.5-8.2-0.2-12.4C153.4,579.6,158.7,576.4,163.9,574.5z"/>
	<path class="st1" d="M448.3,94c6-0.2,9.7,1.1,9.3,6c-0.6,6.4-5.1,10.6-10.9,12c-4.2,1.1-5.3-3-5.5-6.8
		C440.7,98.8,443.4,94.9,448.3,94z"/>
	<path class="st7" d="M163.9,574.5c-5.1,2-10.4,5.1-14.1-2.2c0.7-1.2,1.4-2.4,2-3.6c4.2,1,8.4,2,12.6,3
		C164.2,572.6,164,573.5,163.9,574.5z"/>
	<path class="st4" d="M694.7,424.8c-0.2-0.5-0.5-1.1-0.6-1.7c0-0.2,0.5-0.4,0.7-0.6C694.8,423.3,694.8,424.1,694.7,424.8z"/>
	<path class="st1" d="M539.5,210.6c-0.9,0.7-1.7,1.4-2.5,2.1C537.8,212,538.7,211.3,539.5,210.6z"/>
	<path class="st9" d="M530.4,495.4c-0.7,2.3-1.7,4.5-2.2,6.9c-0.8,3.9-3.6,4.9-6.9,4.9c-3.2,0-4.7-2-5.3-5.2c-1.2-7.5-6-5.8-9.6-2.6
		c-11.5,10.5-22.8,21.2-33.7,32.4c-5.7,5.9-2.4,13.9-2.7,21c-0.5,13.4-0.3,13.6-13.3,13.6c-24.6,0-49.2-0.2-73.8-0.3
		c3.7-5,7.2-10.3,14.4-10.7c12,0.1,24,0.1,36,0.2c24.4,0,24.4,0,24.6-24.7c6.2-7.8,12.9-15.2,21-21c5.5-3.9,8.2-9,7.9-15.8
		c-0.3-5.1-0.2-10.3-0.3-15.5c-2.4-9.1,0.6-18.2,0.2-27.3c-0.2-3.5,0.1-6.9-2.5-9.7c-5.3-5.7-4.1-11.1,0.6-16.5
		c0.5-0.8,1-1.6,1.5-2.4c0-0.7,0-1.4,0-2.1c0.1-18,0.3-36.1,0.4-54.1c3.6-0.1,7.2-0.2,10.9-0.3c0.2,11.1,0.4,22.2,0.6,33.4
		c-0.7,21.3-5.7,43.4,11.5,61.5c1.1,1.2,1.7,3.1,2,4.7c1.1,6.9,5.2,6.9,10.3,4.6c6.2,1.5,5.6,6.7,6.2,11.4
		C529,486.3,526.7,491.3,530.4,495.4z M508.1,480c-3.8-0.5-8.3-3.5-10.4,2c-0.6,1.6,0,5.5,0.7,5.6
		C503.9,488.8,505.1,483.3,508.1,480z"/>
	<path class="st9" d="M332.6,489.1c0-31.2,0-62.4,0-93.5c0.1-9.7,0.3-19.4,0.4-29.2c3.7,0,7.3,0,11-0.1c-0.1,1.3-0.2,2.6-0.2,3.9
		c0,0.9,0.1,1.8,0.1,2.6c0.2,11.1,0.4,22.1,0.7,33.2c-0.2,20.3-0.7,40.6-0.5,60.9c0,5.9-3.3,14.6,2.2,17.1c4.3,2,8.6-6.5,13-10.2
		c7.1-5.9,9.4-5.1,11.8,4.7c-14.4,11.5-26.3,25.4-39.4,38.2c-4.1,4-10.1,6.5-11.2,13c-1.2,0.6-2.6,1-3.7,1.8
		c-7,5.6-4.5,13.5-3.6,20.1c0.9,6.8,7.9,3.4,12.1,3.5c14.4,0.4,28.8,0.1,43.2,0c0,3.6,0,7.3,0,10.9c-18.7,0-37.3-0.3-56,0.1
		c-8.1,0.2-10-3-11-10.8c-2.3-19,3.8-33.1,19-44.6C327,505.9,335.7,500.4,332.6,489.1z"/>
	<path class="st10" d="M530.4,495.4c-3.7-4.1-1.4-9.1-2-13.7c-0.6-4.7,0-9.9-6.2-11.4c3.3-2.5,4.1-5,3-9.6
		c-1.6-6.9,0.7-16.5,6.4-17.6c6.5-1.2,6.2-4.1,7.3-8c0-0.7,0.1-1.4,0.1-2.1l-0.1,0.1c0.7,0,1.4-0.1,2.1-0.2c2.8,2.4,3.7,5.1,3.1,9.1
		c-0.9,6.1-0.7,12.4-1,18.6c-0.3,8.2,4.2,1.1,6.2,1.9c1.7-1,2.6-2.5,2.2-4.5l-0.1,0c2.1,0.5,3.5-0.6,4.7-2.1
		c0.7-0.2,1.2-0.6,1.4-1.3c10.4,6.5,10.7,21.1-0.1,27c-5.3,2.9-8.4,6.6-10.7,11.6C541.3,493.9,535.8,494.7,530.4,495.4z
		 M546.7,469.3c-0.2,0.6-0.5,1.1-0.7,1.7c0.6,0.2,1.3,0.8,1.7,0.6c0.4-0.2,0.5-1,0.8-1.6C547.8,469.8,547.3,469.5,546.7,469.3z"/>
	<path class="st5" d="M397.4,555.3c-7.1,0.4-10.7,5.6-14.4,10.7c-1.4,0.8-2.8,1.6-4.3,2.4c-4.2-4.7-1.8-10.3-2-15.5
		c-0.2-4.8-1.2-7.9-6.7-7.6c1.3-6.6,8.3-8.9,11-14.5c11.7,0,23.4,0.1,35.2,0.1c-5.3,5.7-10.7,11.3-16,17
		C398.3,549.9,394.7,551.5,397.4,555.3z"/>
	<path class="st6" d="M655.1,553.5c1.7,10.8,0.2,12.2-10.2,10.2c-2-0.4-4.1-0.8-5.9-1.6c-4.1-2-11.5-1.6-11.1-7.2
		c0.6-7.1,8.2-3.8,12.7-5l-0.1,0.3C644.3,556.2,649.3,556.4,655.1,553.5z"/>
	<path class="st3" d="M218.6,572.4c4,0.8,10.6-2.7,11.6,2.7c1.2,6.6-6.2,6.6-10.8,8.2c-4.8,1.8-10.1,3.3-14.6,0
		c-2.1-1.6-1.4-5,0.7-7.3C210.4,576.8,215.4,578,218.6,572.4z"/>
	<path class="st3" d="M370.1,545.2c5.5-0.3,6.5,2.8,6.7,7.6c0.2,5.2-2.2,10.8,2,15.5c-4.1,2.5-8.2,4.7-10.6-2c0-3.6,0-7.3,0-10.9
		C368.6,552,367,548.2,370.1,545.2z"/>
	<path class="st7" d="M655.1,553.5c-5.8,2.9-10.9,2.7-14.6-3.4c4.2-0.1,8.5-0.3,12.7-0.4C653.8,551,654.5,552.2,655.1,553.5z"/>
	<path class="st7" d="M218.6,572.4c-3.1,5.5-8.2,4.3-13,3.7c0.1-1.2,0.3-2.3,0.4-3.5c3.3-0.8,6.7-1.7,10-2.5
		C216.8,570.9,217.7,571.7,218.6,572.4z"/>
	<path class="st9" d="M332.6,318.3c0.1-11.1,0-22.2,0.3-33.2c0.3-13.4,8.8-22.3,22.1-22.4c40.2-0.2,80.3-0.2,120.5,0
		c13.8,0.1,21.8,8.4,22.1,22.1c0.3,11.1,0.2,22.1,0.3,33.2c-3.6,6.6-7.4,7.2-11.4,0.3c0.1-10,0.1-20.1,0.3-30.1
		c0.1-8.9-3.9-13.6-13.1-13.6c-38.8,0-77.7,0.1-116.5-0.1c-9.4,0-13.3,4.9-13.5,13.4c-0.2,10,0.1,20.1,0.2,30.1
		C340.4,324.6,336.6,325.2,332.6,318.3z"/>
	<path class="st10" d="M332.6,318.3c4,6.9,7.8,6.3,11.4-0.3c3,0.6,5.7,1.4,5.5,5.2c0,4,0,8,0,12c0,4.1,0,8.3,0,12.4
		c0,3.7,0,7.5,0.1,11.2c0.7,4.5-2.8,5.8-5.7,7.5c-3.7,0-7.3,0-11,0.1c-1.6-2.2-5.1-3.3-4.4-7c-0.7-1.4-1.3-2.8-1.9-4.2
		c0.1-9.8,0.3-19.7,0.1-29.5C326.7,321.5,327.6,318.4,332.6,318.3z"/>
	<path class="st10" d="M486.6,318.3c4,6.9,7.8,6.3,11.4-0.3c2,0.3,4,0.6,6,1c-0.1,1.6-0.2,3.1-0.3,4.7c0,10.7-0.3,21.3,0,32
		c0.2,5.1-1.1,8.6-5.9,10.5c-3.6,0.1-7.2,0.2-10.9,0.3c-2.3-2.5-7.1-2.8-6.6-7.6c3.7-3.6,2.2-7.3,0.3-11.1c0-4.2,0-8.4,0-12.6
		c0-3.7-0.1-7.5-0.1-11.2C480.4,319.7,483,318.4,486.6,318.3z"/>
	<path class="st6" d="M326.6,355.3c0.7,1.4,1.3,2.8,1.9,4.2c-12.2,1.2-24.2,1.1-34.6-6.8c-3-4.4-6-8.8-9.1-13.3
		c0.1-1.9,0.1-3.8-1.5-5.3c-0.1-1-0.2-2-0.3-3c1.5-11.1,0.4-22.2-1.7-33.1c3-0.9,6-1.3,8.9,0.1c-0.9,8.8-2,17.6-1.9,26.5
		c0.4,21.5,9.2,30.5,30.9,30.6C321.8,355.2,324.2,355.2,326.6,355.3z"/>
	<path class="st3" d="M212.3,403.9c0.6,16,2.2,32.1-2.2,47.9c-2.7,0.7-5.4,1.4-8.1,2.2c2.9-12.3,5.6-24.3,2.4-37.2
		C203.1,411.8,205.9,405.9,212.3,403.9z"/>
	<path class="st5" d="M597.2,339.2c-4.2,0-8.3,0-12.5,0c-5.9-3.5-12.4-1-18.6-1.7c-6.4-3.5-3.6-9.6-4.2-14.7c0-14.5,0-29,0-43.4
		c0-14.3,2.5-16.8,16.7-17c1.3,0.7,2.6,1.3,3.9,2c20.8,0.1,41.5,0.1,62.3,0.2c14.3,0,14.9,0.6,14.9,14.4c0,9.7,0,19.4-0.1,29.1
		c-7.2,2.4-9.9,7.4-8.2,14.8c0.1,4.9,0.3,9.7,0.4,14.6c-10.5,0.1-21,0.2-31.6,0.2c-0.8-2.1-1.5-4.1-2.3-6.2
		c3.8-0.1,7.6-0.2,11.4-0.3c12.8-0.1,13.6-0.7,13.5-13.5c0-12.4-0.5-24.8-0.7-37.1c-0.1-6.2-2.7-9.7-9.3-9.7c-18,0.1-36,0.2-54-0.1
		c-6.9-0.1-9.1,3.1-8.9,9.6c0.3,9.3,0.1,18.7,0.1,28c0,23,0,23,22.8,22.8c0.7,0.6,1.5,1.1,2.2,1.7
		C595.8,334.9,596.5,337.1,597.2,339.2z"/>
	<path class="st7" d="M595.1,332.8c-0.7-0.6-1.5-1.1-2.2-1.7c-2.1-2.5-4.7-4.7-4.1-8.5c2.4-3,2.5-6.4,1.9-10c2.8,0.7,5.6,1.4,8.4,2
		c5,4,1.6,9.4,2.2,14.1C599.2,330.1,597.2,331.4,595.1,332.8z"/>
	<path class="st11" d="M601.3,328.7c-0.6-4.7,2.8-10.1-2.2-14.1c8.5-2.4,14.4,4,14.8,16.2c-2.8,0.1-5.6,0.2-8.4,0.3
		C604.1,330.3,602.7,329.5,601.3,328.7z"/>
	<path class="st10" d="M605.5,331.1c2.8-0.1,5.6-0.2,8.4-0.3c1.3,0.2,2.7,0.4,4,0.6c0.8,2.1,1.5,4.1,2.3,6.2
		c-2.4,2.3-5.6,1.3-8.4,1.8C609.7,336.6,605.1,335.7,605.5,331.1z"/>
	<path class="st5" d="M672.4,493c-2.4-6-2.5-12.2-1.9-18.5c3.3-6.6,1.9-14.8,8.4-20.5C676.7,467,674.5,480,672.4,493z"/>
	<path class="st3" d="M291.3,271.9c0,3.5,0,6.9,0,10.4c-0.1,3.3-0.8,6.5-4.8,6.7c-4,0.2-5.4-2.6-5.5-6.1c-0.1-7.6-0.1-15.2,0-22.8
		c0-3.1,1.5-5.6,4.8-5.7c4-0.2,5.3,2.6,5.5,6.1C291.4,264.3,291.3,268.1,291.3,271.9z"/>
	<path class="st12" d="M281.4,297.9c2.2,11,3.2,22,1.7,33.1c-7.8-3.4-6.8-11.7-9.9-17.7c-1.9-3.9-2-8.9-7.6-9.7
		c0.6-2.8,2-4.9,4.9-5.7C274.2,297.9,277.8,297.9,281.4,297.9z"/>
	<path class="st9" d="M266.4,291.5c-3.4,5.4-4.7,8.5-12.2,1.7c-5-4.6-5.4-6.6-4.1-11.5C256.6,283.2,261.9,286.7,266.4,291.5z"/>
	<path class="st1" d="M373.8,156.8c2.8-1.5,5.4-3.2,8.2-4.2c3.4-1.3,6.8-5.7,10.1-2.9c2.8,2.3,0.9,7.2,1.1,10.9
		c0.3,4.6-1.2,6.7-6,4.2C382.7,162.4,377.3,161.7,373.8,156.8z"/>
	<path class="st12" d="M578.6,262.3c-14.1,0.2-16.6,2.7-16.7,17c0,14.5,0,29,0,43.4c-7.5-1.1-11.1,3.2-14.1,9.4
		c-3.8,7.9-1.3,16.4-3.7,24.4c-1.4,4.6-1.3,10.2-7.2,11.5c-5.9,1.2-10.7-1.9-14.5-6.1c-3-3.3-5.5-8.3-10.8-4.1
		c-4.9,3.9-7.6,9-3.6,15.4c2.9,4.6,5.9,9.2,8.3,14.1c2,4,3.6,8.7,0,12.6c-3.2,3.5-7,1.1-10.6,0.2c-2.3-0.6-4.8-0.4-7.2-0.6
		c-0.2-11.1-0.4-22.2-0.6-33.4c4.8-1.9,6.1-5.4,5.9-10.5c-0.4-10.6-0.1-21.3,0-32c21.3-0.8,29.5-9.4,29.5-30.9c0-18.6,0-37.2,0-55.8
		c0-9.4,1.9-17.8,11.1-22.7c8.2,3.2,14.2,8.4,19.9,15.3c4.5,5.5,7.2,13.2,14.6,16.3C578.6,251.3,578.6,256.8,578.6,262.3z"/>
	<path class="st13" d="M468.2,191.6c-0.3-0.1-0.5-0.3-0.8-0.4C467.6,191.4,467.9,191.5,468.2,191.6
		C468.2,191.7,468.2,191.6,468.2,191.6z"/>
	<path class="st12" d="M294,352.6c10.4,7.9,22.4,8.1,34.6,6.8c-0.8,3.7,2.8,4.7,4.4,7c-0.1,9.7-0.3,19.4-0.4,29.2
		C314.8,385.7,301,372.2,294,352.6z"/>
	<path class="st12" d="M283.4,334.1c1.6,1.5,1.6,3.4,1.5,5.3C283,338,283,336.1,283.4,334.1z"/>
	<path class="st11" d="M498.4,399.5c2.4,0.2,4.9,0.1,7.2,0.6c3.6,0.9,7.4,3.3,10.6-0.2c3.6-4,2-8.6,0-12.6
		c-2.4-4.9-5.4-9.5-8.3-14.1c-4-6.4-1.3-11.5,3.6-15.4c5.3-4.2,7.8,0.8,10.8,4.1c3.9,4.2,8.7,7.3,14.5,6.1c5.8-1.2,5.8-6.9,7.2-11.5
		c2.4-8,0-16.5,3.7-24.4c3-6.2,6.6-10.5,14.1-9.4c0.7,5.1-2.2,11.3,4.2,14.7c0.1,8.1-3,15.4-7.3,21.9c-5.5,8.4-3.2,15.1,3,21.6
		c0,2.8-0.2,5.5,0.1,8.3c0.6,6.2-1.7,9-8.2,8.4c-6.1-0.6-10,2.8-8.3,8.5c2.9,9.4,0.5,17.1-4.4,24.8l0,0c-0.7,0.7-1.4,1.5-2.1,2.2
		l0.1-0.1c-1.6,0.1-3.8-0.1-3.4,2.1c0.4,1.6,2.1,0,3.2-0.1c-1.1,3.9-0.8,6.8-7.3,8c-5.8,1.1-8,10.7-6.4,17.6c1.1,4.5,0.2,7.1-3,9.6
		c-5.1,2.2-9.2,2.3-10.3-4.6c-0.3-1.6-0.9-3.5-2-4.7C492.7,442.9,497.7,420.8,498.4,399.5z M524.3,422.6c-1.9,0.7-3.9,1.4-6.5,2.4
		c0.9-4.2,1.5-7.5,2.3-11.4c-4.3,2.6-10.7,3.3-5,9.9c0.8,1,0.5,3.4,0,4.9c-2.8,9.4-0.6,18.2,2.6,27.1
		C516.2,443.7,519.7,433.1,524.3,422.6c4.5-1.2,9.2-1.8,13.6-5.7C531.6,416.2,526.5,415.8,524.3,422.6z M554.8,340.8
		c-4.9,7.9-3,15.5-2.7,23C554,356.6,557,349.5,554.8,340.8z M506.4,412.8c0.6,0.3,1.2,0.5,1.8,0.8c0.3-0.6,0.8-1.3,0.7-1.7
		c-0.2-0.4-1.1-0.5-1.7-0.8C506.9,411.6,506.7,412.2,506.4,412.8z M550.3,371.3c0.2-0.1,0.5-0.2,0.6-0.4c0.1-0.2,0-0.5-0.1-0.8
		c-0.3,0.2-0.6,0.3-1,0.5C550,370.8,550.1,371.1,550.3,371.3z"/>
	<path class="st11" d="M557.5,454.7c-0.2,0.7-0.7,1.1-1.4,1.3c-1.9-0.1-3.7,0.1-4.7,2.1l0.1,0c-0.7,0-1.4,0-2,0
		c0.1-1,0.2-2.1,0.4-3.1c1.1-5.2,5.7-9.8,2.1-15.5c-0.3-0.5-2.3-0.8-2.6-0.5c-4,5.6-2.3,11.7-1.4,17.7c0.1,0.5,0.9,1,1.4,1.4
		c0,1.5,0,2.9-0.1,4.4c-2-0.9-6.5,6.3-6.2-1.9c0.2-6.2,0.1-12.5,1-18.6c0.6-4-0.3-6.7-3.1-9.1c0-0.7,0-1.4,0-2.1l0,0
		c7.4-1.8,11.2-7.5,14.2-13.7c2.6-5.3,6.4-7.7,12.3-7.1c4.2,0.4,7.4,2.4,8.3,6.4c1,4.5-2.7,5.8-6.2,6.5c-10,2-12.2,7.9-7.9,16.5
		C565,446.1,563.5,450.8,557.5,454.7z"/>
	<path class="st1" d="M561.8,381c-6.2-6.5-8.5-13.2-3-21.6c4.3-6.5,7.4-13.8,7.3-21.9c6.2,0.7,12.7-1.8,18.6,1.7
		c-3,14.7-8.4,28.1-18.6,39.4C564.8,380,563.6,380.8,561.8,381z"/>
	<path class="st0" d="M486.5,420.6c-12.6,1.3-25.4,4.9-37.6,3.5c-17.4-2-35,0.7-52.2-4.1c-13.5-3.7-27.5-5.8-40.1-12.6
		c-3.9-2.1-8-1.4-12.1-1.3c-0.2-11.1-0.4-22.1-0.7-33.2c1-0.9,1-1.8-0.1-2.6c0.1-1.3,0.2-2.6,0.2-3.9c2.9-1.8,6.4-3.1,5.7-7.5
		c18.7-0.1,37.3-0.1,56-0.2c-0.7,1.7-1.4,3.4-2.1,5.1c-3.5,0.6-3.5,3.2-4,6.1c-2.6,12.5,5.7,20.5,11.6,29.5c3.3,5.1,6,4.3,9-0.5
		c2.2-3.5,5.4-6.4,7.3-9.9c4.7-8.9,6.2-18-0.8-26.7c0-1.1,0-2.2,0-3.3c17.9,0,35.8-0.1,53.7-0.1c-0.5,4.8,4.3,5.2,6.6,7.6
		C486.8,384.5,486.6,402.5,486.5,420.6z"/>
	<path class="st3" d="M370.9,478.7c10.2-0.1,20.5-0.2,30.7-0.3c2.9,2.6,5.7-0.1,8.5-0.2c3.6-0.3,8.9,3.9,9.7-3.7
		c5.3-1.5,9.9,2.5,15.1,1.7c0,0,0.5,0.5,0.4,0.5c0.5,0.4,1,0.9,1.6,1.3c0.3,0.4,0.4,0.8,0.2,1.3c0.3,1.4-0.3,3.3,2,3.7
		c0.7,0.7,1.4,1.4,2.1,2.1c0.1,1.3,0.8,2,2.1,2.1c0.7,0.7,1.4,1.4,2.1,2.1c0.7,0.7,1.4,1.4,2.1,2.1c0.7,0.7,1.4,1.4,2.1,2.1
		s1.4,1.4,2.1,2.1c0.7,0.7,1.3,1.5,2,2.2c-16.8,3.7-33.9,0.8-50.8,1.8c-0.3,0-0.9,0-1-0.2c-5.3-9.9-9.2-0.6-12,1.7
		c-5.9,4.7-9.2,11.6-12.9,19.7c20.2,0,39.2,0,58.1,0c2.1,0,4.9,0.1,5.1-2.3c0.2-1.4-1.7-3.8-3.3-4.6c-5.7-2.8-0.7,2.6-2.2,3.1
		c-1.2,0.5-2.4,1.4-3.6,1.4c-15.7,0.1-31.4,0.1-47.3,0.1c5-14,13.8-18.2,27.2-16.9c14,1.4,28.2,0.7,42.2,1.3c2,0.1,3.6,0.2,4.2-1.5
		c0.8-2.6-0.9-3.7-3.3-3.8c-0.2-1.3-0.9-2.1-2.3-1.8c0.2-1.5-0.5-2.2-2-2.1c0.1-1.5-0.6-2.2-2.1-2.1c0.1-1.5-0.6-2.2-2.1-2.1
		c0.1-1.5-0.6-2.2-2.1-2.1c0.1-1.5-0.6-2.2-2.1-2.1c0-1.4-0.7-2.1-2.1-2c-0.2-1.2-0.4-2.4-0.6-3.6c16.1-0.3,32.2-0.6,48.3-0.9
		c0.1,5.2,0,10.3,0.3,15.5c0.3,6.8-2.4,11.8-7.9,15.8c-8.1,5.8-14.8,13.2-21,21c-13.9,0-27.9,0-41.8,0.1c-11.7,0-23.4-0.1-35.2-0.1
		c-20.3-0.3-40.6-0.6-60.9-0.9c1.1-6.6,7.1-9.1,11.2-13C344.6,504.1,356.5,490.1,370.9,478.7z"/>
	<path class="st0" d="M416.2,530.9c13.9,0,27.9,0,41.8-0.1c-0.2,24.7-0.2,24.7-24.6,24.7c-12,0-24-0.1-36-0.2
		c-2.7-3.8,0.9-5.4,2.8-7.5C405.5,542.1,410.9,536.5,416.2,530.9z"/>
	<path class="st3" d="M508.1,480c-3,3.3-4.2,8.8-9.7,7.6c-0.6-0.1-1.3-4-0.7-5.6C499.8,476.5,504.3,479.5,508.1,480z"/>
	<path class="st0" d="M485,425.1c0.5-0.8,1-1.6,1.5-2.4C486,423.5,485.5,424.3,485,425.1z"/>
	<path class="st12" d="M320.2,529.9c20.3,0.3,40.6,0.6,60.9,0.9c-2.6,5.6-9.6,7.9-11,14.5c-3.1,2.9-1.5,6.7-1.9,10.1
		c-14.4,0-28.8,0.3-43.2,0c-4.2-0.1-11.2,3.2-12.1-3.5c-0.9-6.6-3.4-14.6,3.6-20.1C317.6,530.8,319,530.5,320.2,529.9z"/>
	<path class="st10" d="M343.7,370.3c1,0.9,1.1,1.7,0.1,2.6C343.8,372.1,343.8,371.2,343.7,370.3z"/>
	<path class="st11" d="M546.7,469.3c0.6,0.2,1.1,0.5,1.7,0.7c-0.2,0.6-0.4,1.4-0.8,1.6c-0.4,0.2-1.1-0.4-1.7-0.6
		C546.2,470.4,546.4,469.8,546.7,469.3z"/>
	<path class="st14" d="M538.9,435.1c-1.1,0.1-2.9,1.7-3.2,0.1c-0.5-2.2,1.8-2,3.4-2.1C539,433.7,539,434.4,538.9,435.1z"/>
	<path class="st14" d="M549.4,462.6c0-1.5,0-2.9,0.1-4.4l0-0.1c0.7-0.1,1.4-0.1,2,0C552,460.1,551.1,461.5,549.4,462.6z"/>
	<path class="st14" d="M551.4,458.1c1-2,2.8-2.2,4.7-2.1C554.9,457.4,553.5,458.6,551.4,458.1z"/>
	<path class="st14" d="M541,430.9c0,0.7,0,1.4,0,2.1c-0.7,0.1-1.4,0.1-2.1,0.2C539.6,432.4,540.3,431.6,541,430.9z"/>
	<path class="st0" d="M486.6,318.3c-3.6,0.2-6.2,1.4-6,5.7c-18.7-0.2-37.3-0.3-56-0.5c-0.6-5.7,1.8-13.1-8.2-13.1
		c-9.1-0.1-10.7,5.6-10.8,12.8c-18.7,0-37.3,0.1-56,0.1c0.2-3.9-2.5-4.7-5.5-5.2c-0.1-10-0.5-20.1-0.2-30.1
		c0.2-8.5,4.1-13.4,13.5-13.4c38.8,0.2,77.7,0.1,116.5,0.1c9.2,0,13.2,4.7,13.1,13.6C486.7,298.2,486.7,308.2,486.6,318.3z"/>
	<path class="st12" d="M349.6,347.6c0-4.1,0-8.3,0-12.4c18.6,0.1,37.2,0.1,55.9,0.2c-0.1,4-0.1,8-0.2,12
		C386.7,347.5,368.1,347.6,349.6,347.6z"/>
	<path class="st9" d="M405.4,335.4c-18.6-0.1-37.2-0.1-55.9-0.2c0-4,0-8,0-12c18.7,0,37.3-0.1,56-0.1l0,0c0.1,0.7,0.1,1.4,0.2,2.1
		C405.7,328.6,405.6,332,405.4,335.4z"/>
	<path class="st9" d="M349.6,347.6c18.6-0.1,37.1-0.2,55.7-0.2c0.5,0.5,0.7,1.2,0.6,1.9c0,3.1-0.1,6.2-0.2,9.3
		c-18.7,0.1-37.4,0.1-56,0.2C349.6,355.1,349.6,351.4,349.6,347.6z"/>
	<path class="st9" d="M424.6,323.5c18.7,0.2,37.3,0.3,56,0.5c0,3.7,0.1,7.5,0.1,11.2c-18.2,0-36.3,0-54.5,0
		c-2.4-3.1-0.7-6.9-1.7-10.2C424.5,324.4,424.6,324,424.6,323.5z"/>
	<path class="st1" d="M426.1,335.1c18.2,0,36.3,0,54.5,0c0,4.2,0,8.4,0,12.6c-18.1,0.1-36.2,0.1-54.3,0.2
		C426.3,343.7,426.2,339.4,426.1,335.1z"/>
	<path class="st9" d="M426.3,347.9c18.1-0.1,36.2-0.1,54.3-0.2c1.9,3.8,3.4,7.5-0.3,11.1c-17.9,0-35.8,0.1-53.7,0.1
		c-0.1-3.3-0.2-6.6-0.3-9.9C425.9,348.6,425.9,348.3,426.3,347.9z"/>
	<path class="st8" d="M617.9,331.4c-1.3-0.2-2.7-0.4-4-0.6c-0.4-12.2-6.3-18.6-14.8-16.2c-2.8-0.7-5.6-1.3-8.4-2
		c-4.4,0.5-11.1-2.3-11.5,4.8c-0.3,5.1,5.5,4.9,9.6,5.2c-0.6,3.8,2,6,4.1,8.5c-22.8,0.2-22.8,0.2-22.8-22.8c0-9.3,0.2-18.7-0.1-28
		c-0.2-6.4,1.9-9.6,8.9-9.6c18,0.2,36,0.1,54,0.1c6.6,0,9.2,3.5,9.3,9.7c0.2,12.4,0.6,24.8,0.7,37.1c0,12.8-0.7,13.5-13.5,13.5
		C625.5,331.2,621.7,331.3,617.9,331.4z M596,306C596,306,596,305.9,596,306c4.1-0.1,8.2,0.1,12.3-0.1c2.5-0.1,4.8-1.3,4.6-4.3
		c-0.2-2.4-2.1-3.5-4.3-3.6c-8.2-0.1-16.4-0.2-24.6,0c-2.5,0-4.9,1.3-4.6,4.3c0.3,2.9,2.8,3.7,5.3,3.7
		C588.5,306.1,592.3,306,596,306z M593.1,291.8c4.5-2.2,13.4,3.4,13.6-4.2c0.2-8.3-8.7-3.9-13.3-4.1c-4.7-0.2-13.4-3.7-13.5,4.1
		C579.9,294.3,588.4,290.2,593.1,291.8z"/>
	<path class="st10" d="M588.8,322.6c-4-0.3-9.9-0.1-9.6-5.2c0.4-7.1,7.1-4.3,11.5-4.8C591.3,316.1,591.2,319.6,588.8,322.6z"/>
	<path class="st8" d="M499.4,104.3c-0.7,0.7-1.4,1.4-2.1,2.1C498,105.6,498.7,105,499.4,104.3z"/>
	<path class="st12" d="M524.4,422.6c-4.7,10.4-8.1,21.1-6.7,32.9c-3.2-8.9-5.4-17.7-2.6-27.1c0.5-1.5,0.8-3.9,0-4.9
		c-5.7-6.6,0.7-7.3,5-9.9c-0.8,3.9-1.5,7.1-2.3,11.4C520.5,424,522.4,423.3,524.4,422.6L524.4,422.6z"/>
	<path class="st12" d="M554.8,340.8c2.1,8.7-0.8,15.8-2.7,23C551.8,356.3,549.9,348.7,554.8,340.8z"/>
	<path class="st12" d="M524.3,422.6c2.1-6.8,7.3-6.4,13.6-5.7C533.5,420.8,528.8,421.4,524.3,422.6
		C524.4,422.6,524.3,422.6,524.3,422.6z"/>
	<path class="st12" d="M506.4,412.8c0.3-0.6,0.5-1.2,0.8-1.7c0.6,0.3,1.5,0.4,1.7,0.8s-0.4,1.1-0.7,1.7
		C507.6,413.3,507,413,506.4,412.8z"/>
	<path class="st12" d="M550.3,371.3c-0.1-0.2-0.3-0.4-0.4-0.6c0.3-0.2,0.6-0.3,1-0.5c0,0.3,0.2,0.6,0.1,0.8
		C550.8,371.1,550.5,371.2,550.3,371.3z"/>
	<path class="st10" d="M549.4,458.2c-0.5-0.5-1.3-0.9-1.4-1.4c-0.9-6-2.6-12.1,1.4-17.7c0.2-0.3,2.2-0.1,2.6,0.5
		c3.6,5.7-1.1,10.4-2.1,15.5C549.7,456,549.6,457.1,549.4,458.2C549.5,458.1,549.4,458.2,549.4,458.2z"/>
	<path class="st8" d="M410.1,478.2c-2.8,0-5.6,2.7-8.5,0.2c2.7-3.4,6.3-5.4,5.6-11.5c-0.6-6.2,9.4-9.3,14-4.8
		c4.7,4.6,9.1,9.4,13.7,14.2c-5.2,0.8-9.8-3.2-15.1-1.8c-4-1.4,3.3-4.7-0.9-5.8c-2.7-0.7-4.4,1-5.7,3.2
		C412,473.9,410.1,475.5,410.1,478.2z"/>
	<path class="st8" d="M436.9,478c-0.5-0.4-1-0.9-1.6-1.3C435.9,477.1,436.4,477.6,436.9,478z"/>
	<path class="st3" d="M426.6,362.2c7,8.7,5.5,17.8,0.8,26.7c-1.9,3.6-5.1,6.5-7.3,9.9c-2.9,4.7-5.7,5.5-9,0.5
		c-5.9-9-14.2-17-11.6-29.5c0.6-2.8,0.5-5.5,4-6.1C411.8,370.6,421.1,369.9,426.6,362.2z"/>
	<path class="st5" d="M426.6,362.2c-5.5,7.7-14.7,8.3-23,1.6c0.7-1.7,1.4-3.4,2.1-5.1c0-3.1,0.1-6.2,0.2-9.3
		c5.5,0.1,11,0.2,16.5,0.4c0.8-0.1,1.6-0.2,2.4-0.3c0.5-0.1,1-0.3,1.6-0.4c0.1,3.3,0.2,6.6,0.3,9.9
		C426.6,360,426.6,361.1,426.6,362.2z"/>
	<path class="st6" d="M453.8,497.3c1.8,0.1,3.2,0.7,3.5,2.2c0.1,0.5,0,1-0.2,1.7c-0.6,1.7-2.2,1.6-4.2,1.5
		c-14.1-0.6-28.3,0.1-42.2-1.3c-13.4-1.3-22.2,2.8-27.2,16.9c16,0,31.7,0,47.3-0.1c1.2,0,2.4-0.9,3.6-1.4c1.5-0.6-3.5-6,2.2-3.1
		c1.6,0.8,3.4,3.1,3.3,4.6c-0.2,2.4-3,2.3-5.1,2.3c-18.9,0-37.8,0-58.1,0c3.7-8.1,7.1-15,12.9-19.7c2.9-2.3,6.7-11.6,12-1.7
		c0.1,0.2,0.7,0.2,1,0.2c16.9-0.9,34,1.9,50.8-1.8L453.8,497.3z"/>
	<path class="st5" d="M424.6,323.5c0,0.5,0,1-0.1,1.5c-5.6-0.2-11.1-0.3-16.7-0.5c-0.7-0.5-1.5-0.9-2.2-1.4c0,0,0,0,0,0
		c0.1-7.2,1.7-12.8,10.8-12.8C426.4,310.4,424,317.7,424.6,323.5z"/>
	<path class="st2" d="M407.8,324.4c5.6,0.2,11.1,0.3,16.7,0.5c1,3.3-0.7,7.1,1.7,10.2c0.1,4.3,0.1,8.5,0.2,12.8
		c-0.4,0.3-0.4,0.7,0,1c-0.5,0.1-1,0.3-1.6,0.4c-0.9-0.9-1.7-0.6-2.4,0.3c-5.5-0.1-11-0.2-16.5-0.4c0.1-0.7-0.1-1.4-0.6-1.9
		c0.1-4,0.1-8,0.2-12c0.1-3.4,0.2-6.9,0.4-10.3C406.5,324.9,407.1,324.7,407.8,324.4z"/>
	<path class="st10" d="M407.8,324.4c-0.7,0.2-1.3,0.5-2,0.7c-0.1-0.7-0.1-1.4-0.2-2.1C406.3,323.5,407.1,324,407.8,324.4z"/>
	<path class="st10" d="M596,306c-3.8,0-7.5,0.1-11.3,0c-2.5-0.1-5-0.8-5.3-3.7c-0.3-3,2.1-4.3,4.6-4.3c8.2-0.1,16.4-0.1,24.6,0
		c2.2,0,4.1,1.2,4.3,3.6c0.2,3.1-2.1,4.2-4.6,4.3C604.2,306.1,600.1,305.9,596,306C596,305.9,596,306,596,306z"/>
	<path class="st10" d="M593.1,291.8c-4.7-1.6-13.2,2.4-13.2-4.2c0-7.8,8.8-4.2,13.5-4.1c4.6,0.2,13.5-4.2,13.3,4.1
		C606.5,295.2,597.6,289.7,593.1,291.8z"/>
	<path class="st9" d="M422.3,349.7c0.7-0.9,1.5-1.1,2.4-0.3C424,349.5,423.1,349.6,422.3,349.7z"/>
	<path class="st6" d="M434.9,476.8c0,0,21.1,18.6,22,21.8c0.9,3.2,3,3.2,0.9,3.2c-2.1,0-6.2-2.1-6.2-2.1S437,487.2,434.9,476.8z"/>
</g>
</svg>
