<?xml version="1.0" encoding="utf-8"?>
<!-- Generator: Adobe Illustrator 24.0.2, SVG Export Plug-In . SVG Version: 6.00 Build 0)  -->
<svg width="255" height="45" version="1.1" id="Camada_1" xmlns="http://www.w3.org/2000/svg" xmlns:xlink="http://www.w3.org/1999/xlink" x="0px" y="0px"
	 viewBox="0 0 255 45" style="enable-background:new 0 0 255 45;" xml:space="preserve">
<style type="text/css">
	.st0{fill:#322153;}
</style>
<path class="st0" d="M38.77,28.21c0.11,1.35,0.18,2.24,0.25,3.12c0.92,0.5,1.77,0.42,2.73,0.11c0.11-0.95,0.22-1.91,0.32-2.73
	c0.93-1.12,1.74-0.98,2.55-0.19c0.8,5.08,0.47,7.03-1.33,7.96c-1.2-0.93-1.2-0.93-1.65-3.48c-0.77-0.33-1.56-0.25-2.38-0.05
	c-1.04,1.51,0.22,2.07,1.49,2.76c-1.38,3.37-4.86,4.13-7.22,6.77c-0.05,0.3-0.19,1.08-0.35,1.95c-9.41,0-18.74,0-28.07,0
	c-0.83-0.53-0.16-1.59-0.91-2.36c-0.54-0.08-1.24-0.19-2.04-0.32c0-12.96,0-25.81,0-38.86c3.22,0,6.46,0,9.7,0
	c0.75-0.03,0.4,0.91,1.34,1.24c0.78,0,1.92,0,2.35,0c1.46,0.21,1.07,1.16,1.81,1.45c2.79,0,5.74,0,8.55,0
	c0.84-0.15,0.52-1.07,1.26-1.35c3.62,0,7.38,0,11.01,0c0.88,0.11,0.57,1.03,1.42,1.42c1.74,0,3.78,0,5.9,0
	c0.54,1.95,0.29,3.78,0.22,5.85c-2.24,0-4.34,0-6.38,0c-0.87,1.65-0.02,3.29-0.71,4.85c-1.08,0.09-2.18,0.19-3.43,0.29
	c-0.37,3.67,0.82,7.61-2.56,10.59c-0.77-1.21-1.58-2.47-2.5-3.92c0-2.03,0-4.24,0-6.39c-1.02-0.82-2.19-0.15-3.25-0.64
	c-0.74-1.36,0.11-3-0.57-4.58c-3.05,0-6.12,0-9.38,0c0,3.07,0,6.07,0,9.14c-1.5,1.27-2.93,2.48-4.35,3.68
	c-0.16,1.17-0.27,2.29,0.15,3.69C21.32,28.21,29.97,28.21,38.77,28.21z M37.71,29.57c-8.56,0-16.85,0-25.12,0c0,1.91,0,3.6,0,5.37
	c8.44,0,16.72,0,25.12,0C37.71,33.07,37.71,31.39,37.71,29.57z M12.56,5.49c0,5.76,0,11.36,0,17.28c1.27-0.77,2.21-1.48,2.94-2.41
	c0-5.03,0-9.98,0-15.03C14.47,5.23,13.6,5.07,12.56,5.49z M7.25,38.57c0.93-0.28,1.68-0.69,1.64-2.05c-1.16-1.07-0.95-2.66-0.95-4.2
	c0-6.07-0.01-12.14,0-18.21c0-2.17-0.35-4.4,1.05-6.28C8.62,6.75,8.01,6.21,7.01,6.27C6.18,6.55,5.75,7.1,5.58,8.21
	c1.38,1.03,1.04,2.73,1.04,4.35c0.01,6.56-0.03,13.12,0.02,19.68c0.01,1.66-0.07,3.24-1.05,4.5C5.78,37.71,6.22,38.24,7.25,38.57z
	 M5.82,41.98c0.08,1.4,0.74,1.41,1.42,1.41c7.77,0,15.53,0,23.3,0c0.83,0,1.75,0.04,1.34-1.41C23.24,41.98,14.59,41.98,5.82,41.98z
	 M16.95,6.92c-0.12,1.28-0.37,2.32,0.18,3.33c3.11,0,6.16,0,9.4,0c0-1.17,0.23-2.19-0.2-3.33C23.24,6.92,20.19,6.92,16.95,6.92z
	 M35.58,10.45c0-2.05-1.09-3.09-2.86-3.11c-1.79-0.02-2.94,1.17-2.98,2.92c-0.05,1.82,1.22,2.94,2.94,2.97
	C34.42,13.27,35.54,12.21,35.58,10.45z M44.57,10.28c0.12-1.3,0.4-2.34-0.2-3.33c-1.8,0-3.56,0-5.31,0
	c-0.41,1.18-0.45,2.19,0.04,3.32C40.85,10.51,42.61,10.46,44.57,10.28z"/>
<g>
	<path class="st0" d="M61.07,34.6V12.56h14.76v4.17h-9.8v4.61h8.72v4.17h-8.72v9.1H61.07z"/>
	<path class="st0" d="M84.2,13.03c0,0.87-0.28,1.55-0.84,2.05c-0.56,0.5-1.22,0.75-1.99,0.75s-1.43-0.25-1.99-0.75
		c-0.56-0.5-0.84-1.18-0.84-2.05c0-0.87,0.28-1.55,0.84-2.05c0.56-0.5,1.22-0.75,1.99-0.75s1.43,0.25,1.99,0.75
		C83.92,11.48,84.2,12.17,84.2,13.03z M83.75,34.6h-4.74V17.87h4.74V34.6z"/>
	<path class="st0" d="M88.21,18.44c0.81-0.23,1.85-0.45,3.12-0.65c1.27-0.2,2.61-0.3,4.01-0.3c1.42,0,2.6,0.19,3.55,0.56
		c0.94,0.37,1.69,0.9,2.24,1.57c0.55,0.68,0.94,1.48,1.18,2.42c0.23,0.93,0.35,1.97,0.35,3.12v9.45h-4.74v-8.88
		c0-1.53-0.2-2.61-0.6-3.25c-0.4-0.64-1.16-0.95-2.26-0.95c-0.34,0-0.7,0.02-1.08,0.05s-0.72,0.07-1.02,0.11V34.6h-4.74V18.44z"/>
	<path class="st0" d="M121.71,34.06c-0.42,0.13-0.91,0.25-1.46,0.37s-1.13,0.22-1.73,0.3c-0.6,0.08-1.22,0.15-1.85,0.21
		c-0.63,0.05-1.22,0.08-1.8,0.08c-1.38,0-2.61-0.2-3.69-0.6c-1.08-0.4-1.99-0.98-2.74-1.73c-0.74-0.75-1.31-1.67-1.7-2.74
		c-0.39-1.07-0.59-2.27-0.59-3.61c0-1.36,0.17-2.58,0.51-3.67s0.83-2.02,1.46-2.78c0.64-0.76,1.42-1.35,2.34-1.75
		c0.92-0.4,1.98-0.6,3.17-0.6c0.66,0,1.25,0.06,1.77,0.19c0.52,0.13,1.04,0.31,1.58,0.54v-7.57l4.74-0.76V34.06z M110.99,26.11
		c0,1.46,0.33,2.64,0.99,3.53c0.66,0.89,1.63,1.34,2.93,1.34c0.42,0,0.82-0.02,1.18-0.05c0.36-0.03,0.66-0.07,0.89-0.11V22.2
		c-0.3-0.19-0.68-0.35-1.16-0.48c-0.48-0.13-0.96-0.19-1.45-0.19C112.11,21.53,110.99,23.06,110.99,26.11z"/>
	<path class="st0" d="M139.81,17.42c1.4,0,2.57,0.16,3.5,0.48c0.93,0.32,1.68,0.77,2.24,1.37c0.56,0.59,0.96,1.32,1.19,2.16
		c0.23,0.85,0.35,1.79,0.35,2.83v9.86c-0.68,0.15-1.62,0.32-2.83,0.52c-1.21,0.2-2.67,0.3-4.39,0.3c-1.08,0-2.06-0.1-2.94-0.29
		s-1.64-0.5-2.27-0.94c-0.64-0.43-1.12-1-1.46-1.7c-0.34-0.7-0.51-1.56-0.51-2.58c0-0.98,0.2-1.8,0.59-2.48
		c0.39-0.68,0.92-1.22,1.58-1.62c0.66-0.4,1.41-0.69,2.26-0.88c0.85-0.18,1.73-0.27,2.64-0.27c0.61,0,1.16,0.03,1.64,0.08
		c0.48,0.05,0.86,0.12,1.16,0.21v-0.45c0-0.81-0.24-1.45-0.73-1.94c-0.49-0.49-1.34-0.73-2.54-0.73c-0.81,0-1.6,0.06-2.39,0.17
		c-0.79,0.12-1.46,0.28-2.04,0.49l-0.6-3.82c0.28-0.08,0.62-0.17,1.03-0.27c0.41-0.1,0.86-0.18,1.35-0.25
		c0.49-0.07,1-0.14,1.54-0.19C138.71,17.45,139.26,17.42,139.81,17.42z M140.19,31.3c0.47,0,0.91-0.01,1.34-0.03
		c0.42-0.02,0.76-0.05,1.02-0.1v-3.6c-0.19-0.04-0.48-0.08-0.86-0.13s-0.73-0.06-1.05-0.06c-0.45,0-0.86,0.03-1.26,0.08
		c-0.39,0.05-0.74,0.15-1.03,0.3c-0.3,0.15-0.53,0.35-0.7,0.6c-0.17,0.25-0.25,0.57-0.25,0.95c0,0.74,0.25,1.26,0.75,1.54
		C138.64,31.15,139.32,31.3,140.19,31.3z"/>
	<path class="st0" d="M165.2,12.56c0.38,0.7,0.82,1.56,1.32,2.59c0.5,1.03,1.02,2.14,1.56,3.34c0.54,1.2,1.08,2.42,1.61,3.67
		c0.53,1.25,1.03,2.43,1.5,3.53c0.47-1.1,0.97-2.28,1.5-3.53c0.53-1.25,1.07-2.48,1.61-3.67c0.54-1.2,1.06-2.31,1.56-3.34
		c0.5-1.03,0.94-1.89,1.32-2.59h4.52c0.21,1.46,0.41,3.1,0.59,4.92c0.18,1.81,0.34,3.7,0.48,5.66c0.14,1.96,0.27,3.93,0.38,5.9
		c0.12,1.97,0.22,3.83,0.3,5.57h-4.84c-0.06-2.14-0.15-4.48-0.25-7c-0.11-2.52-0.27-5.07-0.48-7.64c-0.38,0.89-0.81,1.88-1.28,2.96
		c-0.47,1.08-0.93,2.16-1.39,3.25c-0.46,1.08-0.9,2.12-1.32,3.1c-0.43,0.99-0.79,1.83-1.09,2.53h-3.47c-0.3-0.7-0.66-1.54-1.08-2.53
		s-0.87-2.02-1.33-3.1c-0.46-1.08-0.92-2.16-1.39-3.25c-0.47-1.08-0.89-2.07-1.28-2.96c-0.21,2.57-0.37,5.11-0.48,7.64
		c-0.11,2.52-0.19,4.86-0.25,7h-4.84c0.08-1.74,0.19-3.6,0.3-5.57c0.12-1.97,0.24-3.94,0.38-5.9c0.14-1.96,0.3-3.85,0.48-5.66
		c0.18-1.81,0.38-3.45,0.59-4.92H165.2z"/>
	<path class="st0" d="M193.58,17.42c1.4,0,2.57,0.16,3.5,0.48c0.93,0.32,1.68,0.77,2.24,1.37c0.56,0.59,0.96,1.32,1.19,2.16
		c0.23,0.85,0.35,1.79,0.35,2.83v9.86c-0.68,0.15-1.62,0.32-2.83,0.52c-1.21,0.2-2.67,0.3-4.39,0.3c-1.08,0-2.06-0.1-2.94-0.29
		s-1.64-0.5-2.27-0.94c-0.64-0.43-1.12-1-1.46-1.7c-0.34-0.7-0.51-1.56-0.51-2.58c0-0.98,0.2-1.8,0.59-2.48
		c0.39-0.68,0.92-1.22,1.58-1.62c0.66-0.4,1.41-0.69,2.26-0.88c0.85-0.18,1.73-0.27,2.64-0.27c0.61,0,1.16,0.03,1.64,0.08
		c0.48,0.05,0.86,0.12,1.16,0.21v-0.45c0-0.81-0.24-1.45-0.73-1.94c-0.49-0.49-1.34-0.73-2.54-0.73c-0.81,0-1.6,0.06-2.39,0.17
		c-0.79,0.12-1.46,0.28-2.04,0.49l-0.6-3.82c0.28-0.08,0.62-0.17,1.03-0.27c0.41-0.1,0.86-0.18,1.35-0.25
		c0.49-0.07,1-0.14,1.54-0.19C192.48,17.45,193.02,17.42,193.58,17.42z M193.96,31.3c0.47,0,0.91-0.01,1.34-0.03
		c0.42-0.02,0.76-0.05,1.02-0.1v-3.6c-0.19-0.04-0.48-0.08-0.86-0.13s-0.73-0.06-1.05-0.06c-0.45,0-0.86,0.03-1.26,0.08
		c-0.39,0.05-0.74,0.15-1.03,0.3c-0.3,0.15-0.53,0.35-0.7,0.6c-0.17,0.25-0.25,0.57-0.25,0.95c0,0.74,0.25,1.26,0.75,1.54
		C192.4,31.15,193.09,31.3,193.96,31.3z"/>
	<path class="st0" d="M209.9,23.88c0.47-0.51,0.95-1.03,1.45-1.58s0.98-1.09,1.45-1.63c0.47-0.54,0.91-1.05,1.32-1.53
		c0.41-0.48,0.77-0.91,1.06-1.27h5.64c-1.12,1.29-2.22,2.52-3.29,3.7c-1.07,1.17-2.24,2.39-3.52,3.63c0.64,0.57,1.29,1.26,1.97,2.06
		c0.68,0.8,1.34,1.62,1.97,2.47c0.64,0.85,1.22,1.7,1.75,2.55c0.53,0.85,0.98,1.63,1.34,2.33h-5.45c-0.34-0.55-0.73-1.16-1.16-1.83
		c-0.43-0.67-0.89-1.34-1.38-2.01c-0.49-0.67-1-1.31-1.54-1.93s-1.08-1.14-1.6-1.56v7.33h-4.74V10.68l4.74-0.76V23.88z"/>
	<path class="st0" d="M221.64,26.36c0-1.48,0.23-2.78,0.68-3.9c0.46-1.11,1.06-2.04,1.8-2.78c0.74-0.74,1.6-1.3,2.56-1.69
		c0.96-0.38,1.96-0.57,2.97-0.57c2.38,0,4.25,0.73,5.63,2.18c1.38,1.45,2.07,3.59,2.07,6.41c0,0.28-0.01,0.58-0.03,0.91
		c-0.02,0.33-0.04,0.62-0.06,0.87H226.5c0.11,0.98,0.56,1.75,1.37,2.32c0.81,0.57,1.89,0.86,3.25,0.86c0.87,0,1.72-0.08,2.56-0.24
		c0.84-0.16,1.52-0.35,2.05-0.59l0.64,3.85c-0.25,0.13-0.59,0.25-1.02,0.38c-0.42,0.13-0.9,0.24-1.42,0.33
		c-0.52,0.1-1.08,0.17-1.67,0.24c-0.59,0.06-1.19,0.1-1.78,0.1c-1.51,0-2.82-0.22-3.93-0.67c-1.11-0.45-2.04-1.05-2.77-1.83
		c-0.73-0.77-1.27-1.69-1.62-2.75C221.81,28.74,221.64,27.6,221.64,26.36z M232.77,24.55c-0.02-0.4-0.09-0.8-0.21-1.18
		c-0.12-0.38-0.3-0.72-0.54-1.02c-0.24-0.3-0.55-0.54-0.92-0.73s-0.83-0.29-1.38-0.29c-0.53,0-0.99,0.09-1.37,0.27
		c-0.38,0.18-0.7,0.42-0.95,0.72c-0.25,0.3-0.45,0.64-0.59,1.03c-0.14,0.39-0.24,0.79-0.3,1.19H232.77z"/>
	<path class="st0" d="M251.1,22.07c-0.42-0.11-0.92-0.22-1.5-0.33c-0.57-0.12-1.19-0.17-1.85-0.17c-0.3,0-0.65,0.03-1.07,0.08
		c-0.41,0.05-0.73,0.11-0.94,0.18V34.6h-4.74V18.76c0.85-0.3,1.85-0.58,3.01-0.84c1.16-0.27,2.44-0.4,3.87-0.4
		c0.25,0,0.56,0.02,0.92,0.05c0.36,0.03,0.72,0.07,1.08,0.13c0.36,0.05,0.72,0.12,1.08,0.19c0.36,0.07,0.67,0.16,0.92,0.27
		L251.1,22.07z"/>
</g>
<g>
</g>
<g>
</g>
<g>
</g>
<g>
</g>
<g>
</g>
<g>
</g>
<g>
</g>
<g>
</g>
<g>
</g>
<g>
</g>
<g>
</g>
<g>
</g>
<g>
</g>
<g>
</g>
<g>
</g>
</svg>
